<svg xmlns="http://www.w3.org/2000/svg" version="1.0" width="256.000000" height="256.000000" preserveAspectRatio="xMidYMid meet" style=""><rect id="backgroundrect" width="100%" height="100%" x="0" y="0" fill="none" stroke="none"/>


<g class="currentLayer" style=""><title>Layer 1</title><g transform="translate(0,256) scale(0.10000000149011612,-0.10000000149011612) " fill="#00bfa6" stroke="none" id="svg_1" class="selected" fill-opacity="1">
<path d="M1175 2514 c-561 -61 -1004 -464 -1111 -1011 -24 -119 -24 -347 0 -466 98 -503 490 -895 993 -993 119 -24 347 -24 466 0 503 98 895 490 993 993 24 119 24 347 0 466 -98 501 -493 898 -988 992 -84 16 -282 26 -353 19z m387 -187 c381 -100 682 -400 785 -785 24 -87 27 -115 27 -272 0 -157 -3 -185 -27 -272 -103 -385 -400 -682 -785 -785 -87 -24 -115 -27 -272 -27 -157 0 -185 3 -272 27 -385 103 -682 400 -785 785 -24 87 -27 115 -27 272 0 157 3 185 27 272 111 414 444 723 864 803 121 23 341 14 465 -18z" id="svg_2" fill="#00bfa6" fill-opacity="1"/>
<path d="M1170 2209 c-141 -18 -310 -86 -426 -172 -472 -347 -525 -1025 -114 -1437 370 -369 970 -369 1340 0 369 370 369 970 0 1340 -211 210 -501 308 -800 269z m591 -308 c35 -35 38 -77 9 -114 -19 -24 -20 -40 -20 -432 0 -392 1 -408 20 -432 29 -37 26 -79 -9 -114 -35 -35 -77 -38 -114 -9 -24 19 -40 20 -432 20 -392 0 -408 -1 -432 -20 -37 -29 -79 -26 -114 9 -37 37 -38 79 -3 120 19 23 34 31 57 31 29 0 77 45 459 427 384 384 428 431 428 460 0 23 8 38 31 57 41 35 83 34 120 -3z" id="svg_3" fill="#00bfa6" fill-opacity="1"/>
<path d="M1331 1406 l-314 -314 32 -62 c17 -35 31 -74 31 -87 l0 -23 155 0 155 0 0 118 c0 78 4 122 12 130 8 8 52 12 130 12 l118 0 0 270 c0 149 -1 270 -3 270 -1 0 -143 -141 -316 -314z" id="svg_4" fill="#00bfa6" fill-opacity="1"/>
<path d="M1480 1005 l0 -85 71 0 c91 0 99 8 99 99 l0 71 -85 0 -85 0 0 -85z" id="svg_5" fill="#00bfa6" fill-opacity="1"/>
<path d="M890 965 l-44 -45 67 0 c54 0 67 3 67 15 0 20 -28 75 -38 75 -4 0 -28 -20 -52 -45z" id="svg_6" fill="#00bfa6" fill-opacity="1"/>
</g></g></svg>